# xmcd CD database file generated by Grip 2.96
# 
# Track frame offsets:
#       150
#       13654
#       27229
#       38101
#       47484
#       57892
#       68155
#       81788
#       92726
#       101571
#       109492
#       120186
#       132029
#       144820
#       158232
#       167956
# 
# Disc length: 2412 seconds
# 
# Revision: 0
# Processed by: cddbd v1.4PL0 Copyright (c) Steve Scherf et al.
# Submitted via: Grip 2.96
# 
DISCID=c8096a10
DTITLE=Oak Ridge Boys - Gypsy Boy
DYEAR=1900
DGENRE=
TTITLE0=Gypsy Boy
TTITLE1=Hide Thou Me
TTITLE2=Welcome Home
TTITLE3=I Know My Savior Is There
TTITLE4=I Wouldn't Take Nothin For My
TTITLE5=Wonderful Savior
TTITLE6=Angels Must Have Cried
TTITLE7=It's Different Now
TTITLE8=Less Of Me
TTITLE9=River Of Live
TTITLE10=My Heavenly Father
TTITLE11=No One Cared So Much
TTITLE12=The Old Country Church
TTITLE13=Lead Me To Calvary
TTITLE14=Until Then
TTITLE15=You'll Never Walk Alone
EXTD=
EXTT0=
EXTT1=
EXTT2=
EXTT3=
EXTT4=
EXTT5=
EXTT6=
EXTT7=
EXTT8=
EXTT9=
EXTT10=
EXTT11=
EXTT12=
EXTT13=
EXTT14=
EXTT15=
PLAYORDER=
